<mxfile host="Electron" agent="Mozilla/5.0 (Windows NT 10.0; Win64; x64) AppleWebKit/537.36 (KHTML, like Gecko) draw.io/26.0.16 Chrome/132.0.6834.196 Electron/34.2.0 Safari/537.36" version="26.0.16">
  <diagram name="Страница — 1" id="YHIpIf-NBD23PUM4SGN3">
    <mxGraphModel dx="1098" dy="828" grid="1" gridSize="10" guides="1" tooltips="1" connect="1" arrows="1" fold="1" page="1" pageScale="1" pageWidth="827" pageHeight="1169" math="0" shadow="0">
      <root>
        <mxCell id="0" />
        <mxCell id="1" parent="0" />
        <mxCell id="l1B44qZRKh_t7ULyz8fv-1" value="Приложение YMuI" style="swimlane;whiteSpace=wrap;html=1;" vertex="1" parent="1">
          <mxGeometry x="210" y="200" width="480" height="600" as="geometry" />
        </mxCell>
        <mxCell id="l1B44qZRKh_t7ULyz8fv-4" value="Авторизироваться" style="ellipse;whiteSpace=wrap;html=1;" vertex="1" parent="l1B44qZRKh_t7ULyz8fv-1">
          <mxGeometry x="20" y="60" width="120" height="80" as="geometry" />
        </mxCell>
        <mxCell id="l1B44qZRKh_t7ULyz8fv-6" value="Просмотреть избранные песни" style="ellipse;whiteSpace=wrap;html=1;" vertex="1" parent="l1B44qZRKh_t7ULyz8fv-1">
          <mxGeometry x="20" y="170" width="120" height="80" as="geometry" />
        </mxCell>
        <mxCell id="l1B44qZRKh_t7ULyz8fv-8" value="Работать с комнатой" style="ellipse;whiteSpace=wrap;html=1;" vertex="1" parent="l1B44qZRKh_t7ULyz8fv-1">
          <mxGeometry x="20" y="280" width="140" height="80" as="geometry" />
        </mxCell>
        <mxCell id="l1B44qZRKh_t7ULyz8fv-13" style="edgeStyle=orthogonalEdgeStyle;rounded=0;orthogonalLoop=1;jettySize=auto;html=1;endArrow=blockThin;endFill=0;" edge="1" parent="l1B44qZRKh_t7ULyz8fv-1" source="l1B44qZRKh_t7ULyz8fv-9">
          <mxGeometry relative="1" as="geometry">
            <mxPoint x="160" y="320" as="targetPoint" />
            <Array as="points">
              <mxPoint x="400" y="320" />
            </Array>
          </mxGeometry>
        </mxCell>
        <mxCell id="l1B44qZRKh_t7ULyz8fv-9" value="Создать комнату" style="ellipse;whiteSpace=wrap;html=1;" vertex="1" parent="l1B44qZRKh_t7ULyz8fv-1">
          <mxGeometry x="340" y="130" width="120" height="80" as="geometry" />
        </mxCell>
        <mxCell id="l1B44qZRKh_t7ULyz8fv-12" style="edgeStyle=orthogonalEdgeStyle;rounded=0;orthogonalLoop=1;jettySize=auto;html=1;entryX=1;entryY=0.5;entryDx=0;entryDy=0;endArrow=blockThin;endFill=0;" edge="1" parent="l1B44qZRKh_t7ULyz8fv-1" source="l1B44qZRKh_t7ULyz8fv-10" target="l1B44qZRKh_t7ULyz8fv-8">
          <mxGeometry relative="1" as="geometry">
            <Array as="points">
              <mxPoint x="230" y="320" />
            </Array>
          </mxGeometry>
        </mxCell>
        <mxCell id="l1B44qZRKh_t7ULyz8fv-10" value="Войти в комнату" style="ellipse;whiteSpace=wrap;html=1;" vertex="1" parent="l1B44qZRKh_t7ULyz8fv-1">
          <mxGeometry x="170" y="130" width="120" height="80" as="geometry" />
        </mxCell>
        <mxCell id="l1B44qZRKh_t7ULyz8fv-20" style="edgeStyle=orthogonalEdgeStyle;rounded=0;orthogonalLoop=1;jettySize=auto;html=1;entryX=0.5;entryY=1;entryDx=0;entryDy=0;endArrow=open;endFill=0;dashed=1;dashPattern=12 12;" edge="1" parent="l1B44qZRKh_t7ULyz8fv-1" source="l1B44qZRKh_t7ULyz8fv-14" target="l1B44qZRKh_t7ULyz8fv-8">
          <mxGeometry relative="1" as="geometry" />
        </mxCell>
        <mxCell id="l1B44qZRKh_t7ULyz8fv-21" value="&amp;lt;include&amp;gt;" style="edgeLabel;html=1;align=center;verticalAlign=middle;resizable=0;points=[];" vertex="1" connectable="0" parent="l1B44qZRKh_t7ULyz8fv-20">
          <mxGeometry x="0.0571" relative="1" as="geometry">
            <mxPoint as="offset" />
          </mxGeometry>
        </mxCell>
        <mxCell id="l1B44qZRKh_t7ULyz8fv-14" value="Управлять музыкой" style="ellipse;whiteSpace=wrap;html=1;" vertex="1" parent="l1B44qZRKh_t7ULyz8fv-1">
          <mxGeometry x="30" y="430" width="120" height="80" as="geometry" />
        </mxCell>
        <mxCell id="l1B44qZRKh_t7ULyz8fv-19" style="edgeStyle=orthogonalEdgeStyle;rounded=0;orthogonalLoop=1;jettySize=auto;html=1;entryX=0.5;entryY=1;entryDx=0;entryDy=0;endArrow=blockThin;endFill=0;" edge="1" parent="l1B44qZRKh_t7ULyz8fv-1" source="l1B44qZRKh_t7ULyz8fv-16" target="l1B44qZRKh_t7ULyz8fv-14">
          <mxGeometry relative="1" as="geometry">
            <Array as="points">
              <mxPoint x="260" y="580" />
              <mxPoint x="90" y="580" />
            </Array>
          </mxGeometry>
        </mxCell>
        <mxCell id="l1B44qZRKh_t7ULyz8fv-16" value="Запустить музыку" style="ellipse;whiteSpace=wrap;html=1;" vertex="1" parent="l1B44qZRKh_t7ULyz8fv-1">
          <mxGeometry x="200" y="430" width="120" height="80" as="geometry" />
        </mxCell>
        <mxCell id="l1B44qZRKh_t7ULyz8fv-18" style="edgeStyle=orthogonalEdgeStyle;rounded=0;orthogonalLoop=1;jettySize=auto;html=1;entryX=0.5;entryY=1;entryDx=0;entryDy=0;endArrow=blockThin;endFill=0;" edge="1" parent="l1B44qZRKh_t7ULyz8fv-1" source="l1B44qZRKh_t7ULyz8fv-17" target="l1B44qZRKh_t7ULyz8fv-14">
          <mxGeometry relative="1" as="geometry">
            <Array as="points">
              <mxPoint x="410" y="580" />
              <mxPoint x="90" y="580" />
            </Array>
          </mxGeometry>
        </mxCell>
        <mxCell id="l1B44qZRKh_t7ULyz8fv-17" value="Остановить музыку" style="ellipse;whiteSpace=wrap;html=1;" vertex="1" parent="l1B44qZRKh_t7ULyz8fv-1">
          <mxGeometry x="350" y="430" width="120" height="80" as="geometry" />
        </mxCell>
        <mxCell id="l1B44qZRKh_t7ULyz8fv-5" style="edgeStyle=orthogonalEdgeStyle;rounded=0;orthogonalLoop=1;jettySize=auto;html=1;entryX=0;entryY=0.5;entryDx=0;entryDy=0;endArrow=none;startFill=0;" edge="1" parent="1" source="l1B44qZRKh_t7ULyz8fv-2" target="l1B44qZRKh_t7ULyz8fv-4">
          <mxGeometry relative="1" as="geometry">
            <mxPoint x="280" y="300" as="targetPoint" />
          </mxGeometry>
        </mxCell>
        <mxCell id="l1B44qZRKh_t7ULyz8fv-7" style="edgeStyle=orthogonalEdgeStyle;rounded=0;orthogonalLoop=1;jettySize=auto;html=1;entryX=0;entryY=0.5;entryDx=0;entryDy=0;endArrow=none;startFill=0;" edge="1" parent="1" target="l1B44qZRKh_t7ULyz8fv-6">
          <mxGeometry relative="1" as="geometry">
            <mxPoint x="135" y="360" as="sourcePoint" />
            <Array as="points">
              <mxPoint x="135" y="410" />
            </Array>
          </mxGeometry>
        </mxCell>
        <mxCell id="l1B44qZRKh_t7ULyz8fv-11" style="edgeStyle=orthogonalEdgeStyle;rounded=0;orthogonalLoop=1;jettySize=auto;html=1;entryX=0;entryY=0.5;entryDx=0;entryDy=0;endArrow=none;startFill=0;" edge="1" parent="1" target="l1B44qZRKh_t7ULyz8fv-8">
          <mxGeometry relative="1" as="geometry">
            <mxPoint x="135" y="370" as="sourcePoint" />
            <Array as="points">
              <mxPoint x="135" y="520" />
            </Array>
          </mxGeometry>
        </mxCell>
        <mxCell id="l1B44qZRKh_t7ULyz8fv-15" style="edgeStyle=orthogonalEdgeStyle;rounded=0;orthogonalLoop=1;jettySize=auto;html=1;entryX=0;entryY=0.5;entryDx=0;entryDy=0;endArrow=none;startFill=0;" edge="1" parent="1" source="l1B44qZRKh_t7ULyz8fv-2" target="l1B44qZRKh_t7ULyz8fv-14">
          <mxGeometry relative="1" as="geometry">
            <Array as="points">
              <mxPoint x="135" y="670" />
            </Array>
          </mxGeometry>
        </mxCell>
        <mxCell id="l1B44qZRKh_t7ULyz8fv-2" value="Пользователь" style="shape=umlActor;verticalLabelPosition=bottom;verticalAlign=top;html=1;outlineConnect=0;" vertex="1" parent="1">
          <mxGeometry x="120" y="270" width="30" height="60" as="geometry" />
        </mxCell>
      </root>
    </mxGraphModel>
  </diagram>
</mxfile>
